<svg width="23" height="27" viewBox="0 0 23 27" fill="none" xmlns="http://www.w3.org/2000/svg">
<path d="M18.5292 14.3622C18.4991 11.083 21.2715 9.48766 21.3983 9.41339C19.8281 7.17197 17.3945 6.86572 16.5393 6.8413C14.4953 6.63069 12.5126 8.03883 11.4714 8.03883C10.4094 8.03883 8.80602 6.86165 7.07793 6.89624C4.85418 6.92982 2.77383 8.19043 1.63286 10.148C-0.721825 14.1394 1.03432 20.005 3.29028 23.2313C4.41878 24.8114 5.73745 26.5756 7.46345 26.5135C9.15205 26.4454 9.78281 25.4595 11.8206 25.4595C13.8396 25.4595 14.4319 26.5135 16.1922 26.4739C18.0045 26.4454 19.1454 24.8866 20.2344 23.2923C21.5386 21.4813 22.0623 19.6977 22.0831 19.6061C22.0405 19.5919 18.5635 18.2926 18.5292 14.3622Z" fill="white"/>
<path d="M15.204 4.71891C16.1122 3.60685 16.7336 2.09391 16.5611 0.558594C15.2466 0.615571 13.6027 1.44886 12.656 2.5365C11.8185 3.49493 11.0703 5.06586 11.2636 6.54319C12.7402 6.65104 14.2563 5.81368 15.204 4.71891Z" fill="white"/>
</svg>
