<svg width="16" height="16" viewBox="0 0 16 16" fill="none" xmlns="http://www.w3.org/2000/svg">
<path fill-rule="evenodd" clip-rule="evenodd" d="M8.82143 15.1667L8.86818 8.70456H10.6408C10.8918 8.70456 11.1039 8.51855 11.1366 8.26974L11.3362 6.75134C11.3756 6.45189 11.1425 6.18617 10.8405 6.18617H8.86818V4.57833C8.86818 3.8492 9.07459 3.35232 10.1405 3.35232L11.0002 3.35195C11.2763 3.35183 11.5 3.12801 11.5 2.85195V1.5539C11.5 1.29612 11.3043 1.08103 11.0471 1.06243C10.6565 1.03419 10.07 1 9.51896 1C7.55884 1 6.21689 2.17363 6.21689 4.32892V6.18617H4.5C4.22386 6.18617 4 6.41003 4 6.68617V8.20456C4 8.48071 4.22386 8.70456 4.5 8.70456H6.21689V15.1667" fill="white"/>
</svg>
