<svg width="16" height="16" viewBox="0 0 16 16" fill="none" xmlns="http://www.w3.org/2000/svg">
<path fill-rule="evenodd" clip-rule="evenodd" d="M14.6394 3.41782C14.8117 3.861 14.932 4.37244 14.9648 5.11638C14.9977 5.86309 15.0004 6.10103 15.0004 8.00195C15.0004 9.90287 14.9922 10.1408 14.9594 10.8875C14.9266 11.6315 14.8062 12.1402 14.6339 12.5861C14.2701 13.5269 13.526 14.2709 12.5849 14.6347C12.1418 14.807 11.6303 14.9273 10.8862 14.9601C10.1394 14.993 9.90146 15.0011 8.00027 15.0011C6.09908 15.0011 5.861 14.993 5.11429 14.9601C4.37014 14.9273 3.8614 14.807 3.41549 14.6347C2.95045 14.4597 2.52644 14.1834 2.17628 13.8278C1.82066 13.4777 1.54443 13.0565 1.36662 12.5861C1.19426 12.1429 1.07384 11.6315 1.04103 10.8875C1.00823 10.1408 1 9.90287 1 8.00195C1 6.10103 1.00823 5.86309 1.04381 5.1136C1.07662 4.36967 1.19694 3.861 1.3693 3.41515C1.54443 2.95017 1.82066 2.52623 2.17628 2.17611C2.52644 1.81776 2.94767 1.54425 3.41827 1.36647C3.8614 1.19424 4.37292 1.07383 5.11696 1.04103C5.86378 1.00823 6.10175 1 8.00294 1C9.90413 1 10.1421 1.00823 10.8917 1.0438C11.6357 1.07661 12.1446 1.19691 12.5904 1.36924C13.0554 1.54425 13.4794 1.82054 13.8296 2.17611C14.188 2.52623 14.4616 2.9474 14.6394 3.41782ZM13.4633 12.1317C13.559 11.8855 13.6739 11.5162 13.704 10.8325C13.7368 10.094 13.7451 9.87516 13.7451 8.00704C13.7451 6.13892 13.7368 5.91744 13.704 5.17896C13.6739 4.49784 13.559 4.12593 13.4633 3.87977C13.3511 3.57612 13.1733 3.30261 12.9407 3.07557C12.7165 2.84309 12.4401 2.6653 12.1365 2.55322C11.8903 2.45749 11.5211 2.34264 10.8372 2.31251C10.1013 2.27971 9.87974 2.27148 8.00857 2.27148C6.1403 2.27148 5.91868 2.27971 5.18009 2.31251C4.49898 2.34264 4.12691 2.45749 3.88071 2.55322C3.57703 2.6653 3.30347 2.84309 3.07651 3.07557C2.84121 3.29994 2.6634 3.57612 2.5512 3.87977C2.45546 4.12593 2.34059 4.49517 2.31056 5.17896C2.27765 5.91467 2.26953 6.13892 2.26953 8.00704C2.26953 9.87516 2.27765 10.0968 2.31056 10.8352C2.34059 11.5162 2.45546 11.8883 2.5512 12.1344C2.6634 12.438 2.84121 12.7115 3.07373 12.9385C3.29802 13.171 3.57435 13.3488 3.87793 13.461C4.12413 13.5567 4.49343 13.6716 5.17731 13.7016C5.91323 13.7345 6.13752 13.7426 8.0059 13.7426C9.87429 13.7426 10.0958 13.7345 10.8344 13.7016C11.5156 13.6716 11.8876 13.5567 12.1338 13.461C12.7438 13.2257 13.228 12.7416 13.4633 12.1317ZM4.40576 8.001C4.40576 6.01525 6.01705 4.4043 8.00298 4.4043C9.98901 4.4043 11.6002 6.01525 11.6002 8.001C11.6002 9.98675 9.98901 11.5977 8.00298 11.5977C6.01705 11.5977 4.40576 9.98675 4.40576 8.001ZM5.66943 8.00106C5.66943 9.28935 6.71449 10.3342 8.00286 10.3342C9.29133 10.3342 10.3363 9.28935 10.3363 8.00106C10.3363 6.71277 9.29133 5.66797 8.00286 5.66797C6.71449 5.66797 5.66943 6.71277 5.66943 8.00106ZM11.7421 5.10316C12.206 5.10316 12.582 4.72718 12.582 4.26349C12.582 3.7997 12.206 3.42383 11.7421 3.42383C11.2784 3.42383 10.9023 3.7997 10.9023 4.26349C10.9023 4.72718 11.2784 5.10316 11.7421 5.10316Z" fill="white"/>
</svg>
