<svg width="24" height="24" viewBox="0 0 24 24" fill="none" xmlns="http://www.w3.org/2000/svg">
<path d="M15.1108 16.2167C14.2856 17.0421 13.1663 17.5059 11.9992 17.5059C10.8322 17.5059 9.71289 17.0421 8.88764 16.2167M18.0499 1C19.0585 1.00008 20.0431 1.30833 20.8718 1.88351C21.7005 2.45869 22.3337 3.27334 22.6868 4.21842C23.0399 5.1635 23.0959 6.19391 22.8474 7.17172C22.5989 8.14953 22.0577 9.02808 21.2963 9.68978C21.6868 10.7539 21.9003 11.9049 21.9003 13.1043C21.8994 14.5512 21.5817 15.9803 20.9693 17.2912C20.357 18.602 19.4649 19.7627 18.3559 20.6917C17.2468 21.6206 15.9478 22.2952 14.5501 22.668C13.1524 23.0407 11.69 23.1026 10.2658 22.8493C8.84162 22.596 7.49022 22.0336 6.30668 21.2017C5.12314 20.3698 4.13621 19.2887 3.41533 18.0343C2.69444 16.7798 2.2571 15.3827 2.13408 13.941C2.01106 12.4994 2.20535 11.0483 2.70327 9.68978C2.16431 9.2213 1.73305 8.64175 1.43907 7.99088C1.14508 7.34002 0.99534 6.63324 1.00011 5.91905C1.00488 5.20486 1.16405 4.50015 1.4667 3.85327C1.76935 3.20639 2.20832 2.63265 2.75349 2.17142C3.29866 1.71019 3.93713 1.37237 4.62509 1.18115C5.31305 0.989934 6.03423 0.949838 6.73914 1.06361C7.44405 1.17739 8.11602 1.44234 8.70893 1.8403C9.30185 2.23826 9.80168 2.7598 10.1741 3.36914C11.3812 3.14386 12.6195 3.14386 13.8265 3.36914C14.2683 2.64511 14.8887 2.04689 15.6284 1.63199C16.368 1.21709 17.2019 0.999456 18.0499 1Z" stroke="#141414" stroke-width="1.65" stroke-linecap="round" stroke-linejoin="round"/>
</svg>
