<svg width="25" height="27" viewBox="0 0 25 27" fill="none" xmlns="http://www.w3.org/2000/svg">
<path d="M0.843104 0.972703C0.537858 1.28557 0.361206 1.77267 0.361206 2.40348V24.9042C0.361206 25.535 0.537858 26.0221 0.843104 26.335L0.918442 26.4037L13.7959 13.8001V13.5025L0.918442 0.89894L0.843104 0.972703Z" fill="url(#paint0_linear_120_98)"/>
<path d="M18.0835 18.0026L13.7959 13.8001V13.5025L18.0887 9.2984L18.1849 9.35309L23.2688 12.1854C24.7197 12.9892 24.7197 14.3118 23.2688 15.1207L18.1849 17.9479L18.0835 18.0026Z" fill="url(#paint1_linear_120_98)"/>
<path d="M18.1849 17.9479L13.7957 13.6506L0.843104 26.335C1.325 26.831 2.11065 26.8901 3.0043 26.394L18.1849 17.9479Z" fill="url(#paint2_linear_120_98)"/>
<path d="M18.1849 9.35309L3.0043 0.907209C2.11065 0.416293 1.325 0.4767 0.843104 0.972703L13.7957 13.6506L18.1849 9.35309Z" fill="url(#paint3_linear_120_98)"/>
<defs>
<linearGradient id="paint0_linear_120_98" x1="22.3148" y1="1.86647" x2="7.34243" y2="28.4851" gradientUnits="userSpaceOnUse">
<stop stop-color="#00A0FF"/>
<stop offset="0.0066" stop-color="#00A1FF"/>
<stop offset="0.2601" stop-color="#00BEFF"/>
<stop offset="0.5122" stop-color="#00D2FF"/>
<stop offset="0.7604" stop-color="#00DFFF"/>
<stop offset="1" stop-color="#00E3FF"/>
</linearGradient>
<linearGradient id="paint1_linear_120_98" x1="26.1772" y1="13.6574" x2="-30.9515" y2="13.6574" gradientUnits="userSpaceOnUse">
<stop stop-color="#FFE000"/>
<stop offset="0.4087" stop-color="#FFBD00"/>
<stop offset="0.7754" stop-color="#FFA500"/>
<stop offset="1" stop-color="#FF9C00"/>
</linearGradient>
<linearGradient id="paint2_linear_120_98" x1="21.0546" y1="31.4094" x2="-22.592" y2="62.2551" gradientUnits="userSpaceOnUse">
<stop stop-color="#FF3A44"/>
<stop offset="1" stop-color="#C31162"/>
</linearGradient>
<linearGradient id="paint3_linear_120_98" x1="-4.15031" y1="-39.7774" x2="15.3441" y2="-26.0051" gradientUnits="userSpaceOnUse">
<stop stop-color="#32A071"/>
<stop offset="0.0685" stop-color="#2DA771"/>
<stop offset="0.4762" stop-color="#15CF74"/>
<stop offset="0.8009" stop-color="#06E775"/>
<stop offset="1" stop-color="#00F076"/>
</linearGradient>
</defs>
</svg>
