<svg width="16" height="16" viewBox="0 0 16 16" fill="none" xmlns="http://www.w3.org/2000/svg">
<path fill-rule="evenodd" clip-rule="evenodd" d="M14.2109 4.01601H12.6837C12.2982 4.01601 12.1203 4.24021 12.0165 4.48043C12.0165 4.48043 11.2307 6.53025 10.1335 7.85943C9.77762 8.24377 9.61452 8.37189 9.42177 8.37189C9.31798 8.37189 9.18454 8.24377 9.18454 7.89146V4.60854C9.18454 4.19217 9.06592 4 8.73973 4H6.33774C6.10051 4 5.95224 4.19217 5.95224 4.38434C5.95224 4.7847 6.50084 4.88078 6.56015 6.00178V8.43594C6.56015 8.96441 6.47119 9.0605 6.27843 9.0605C5.75949 9.0605 4.49919 6.99466 3.74301 4.64057C3.59474 4.17616 3.44647 4 3.06096 4H1.51895C1.07414 4 1 4.2242 1 4.46441C1 4.8968 1.51895 7.07473 3.41681 9.9573C4.67711 11.927 6.47119 12.984 8.08734 12.984C9.06592 12.984 9.18454 12.7438 9.18454 12.3434V10.8541C9.18454 10.3737 9.2735 10.2936 9.58487 10.2936C9.80728 10.2936 10.2076 10.4217 11.1121 11.3665C12.15 12.4875 12.3279 13 12.9061 13H14.4333C14.8781 13 15.0857 12.7598 14.9671 12.2954C14.8337 11.831 14.3295 11.1584 13.6771 10.3577C13.3213 9.90925 12.7875 9.41281 12.6244 9.1726C12.402 8.85231 12.4613 8.7242 12.6244 8.43594C12.6096 8.43594 14.4778 5.58541 14.6706 4.62456C14.7743 4.27224 14.6706 4.01601 14.2109 4.01601Z" fill="white"/>
</svg>
