<svg width="642" height="443" viewBox="0 0 642 443" fill="none" xmlns="http://www.w3.org/2000/svg">
<path d="M560.64 237.61C560.64 202.788 532.412 174.56 497.59 174.56H225.37C190.549 174.56 162.32 202.788 162.32 237.61C162.32 272.432 190.549 300.66 225.37 300.66H497.59C532.412 300.66 560.64 272.432 560.64 237.61Z" fill="#F6A081"/>
<rect x="75.1001" y="32.34" width="432.12" height="126.1" rx="63.05" fill="#C6ABFF"/>
<circle cx="611.64" cy="17.26" r="13" fill="#F6A081"/>
<circle cx="225.02" cy="266.86" r="13" transform="rotate(180 225.02 266.86)" fill="#F6A081"/>
<circle cx="244" cy="8.93999" r="8.32" transform="rotate(180 244 8.93999)" fill="#F3B634"/>
<circle cx="624.64" cy="162.6" r="8.32" transform="rotate(180 624.64 162.6)" fill="#7BB1A2"/>
<circle cx="629.58" cy="52.1" r="8.32" fill="#C6ABFF"/>
<circle cx="207.08" cy="232.02" r="8.32" transform="rotate(180 207.08 232.02)" fill="#F3B634"/>
<circle cx="632.96" cy="434.56" r="8.32" transform="rotate(180 632.96 434.56)" fill="#94B2FF"/>
<rect y="317" width="537" height="126" rx="63" fill="#F3B634"/>
</svg>
